<?xml version="1.0" encoding="UTF-8"?>
<svg id="Layer_1" xmlns="http://www.w3.org/2000/svg" version="1.1" viewBox="0 0 30 30">
  <!-- Generator: Adobe Illustrator 29.1.0, SVG Export Plug-In . SVG Version: 2.1.0 Build 142)  -->
  <path d="M15,8.8c-3.4,0-6.2,2.7-6.2,6.2s2.7,6.2,6.2,6.2,6.2-2.7,6.2-6.2-2.7-6.2-6.2-6.2ZM15,19c-2.2,0-4-1.8-4-4s1.8-4,4-4,4,1.8,4,4-1.8,4-4,4h0ZM22.8,8.6c0,.8-.6,1.4-1.4,1.4s-1.4-.6-1.4-1.4.6-1.4,1.4-1.4,1.4.6,1.4,1.4ZM26.9,10.1c0-1.9-.5-3.6-1.9-5-1.4-1.4-3.1-1.8-5-1.9-2-.1-7.9-.1-9.9,0-1.9,0-3.6.5-5,1.9s-1.8,3.1-1.9,5c-.1,2-.1,7.9,0,9.9,0,1.9.5,3.6,1.9,5,1.4,1.4,3.1,1.8,5,1.9,2,.1,7.9.1,9.9,0,1.9,0,3.6-.5,5-1.9,1.4-1.4,1.8-3.1,1.9-5,.1-2,.1-7.9,0-9.9h0ZM24.4,22.1c-.4,1-1.2,1.9-2.3,2.3-1.6.6-5.3.5-7.1.5s-5.5.1-7.1-.5c-1-.4-1.9-1.2-2.3-2.3-.6-1.6-.5-5.3-.5-7.1s-.1-5.5.5-7.1c.4-1,1.2-1.9,2.3-2.3,1.6-.6,5.3-.5,7.1-.5s5.5-.1,7.1.5c1,.4,1.9,1.2,2.3,2.3.6,1.6.5,5.3.5,7.1s.1,5.5-.5,7.1Z"/>
</svg>