<?xml version="1.0" encoding="UTF-8"?>
<svg id="Layer_1" xmlns="http://www.w3.org/2000/svg" version="1.1" viewBox="0 0 30 30">
  <!-- Generator: Adobe Illustrator 29.1.0, SVG Export Plug-In . SVG Version: 2.1.0 Build 142)  -->
  <path d="M15.6,3c-4.9,0-9.8,3.3-9.8,8.6s1.9,5.3,3.1,5.3.8-1.3.8-1.7-1.1-1.4-1.1-3.3c0-3.9,2.9-6.6,6.8-6.6s5.7,1.9,5.7,5.3-1,7.3-4.3,7.3-2.2-.9-2.2-2.1c0-1.8,1.3-3.6,1.3-5.5,0-3.2-4.5-2.6-4.5,1.2s.1,1.7.5,2.4c-.7,2.9-2,7.1-2,10.1s.1,1.8.2,2.7c.2.2,0,.2.3,0,2.4-3.3,2.3-4,3.4-8.3.6,1.1,2.1,1.7,3.3,1.7,5.1,0,7.4-5,7.4-9.5s-4.1-7.9-8.7-7.9Z"/>
</svg>