<?xml version="1.0" encoding="UTF-8"?>
<svg id="Layer_1" xmlns="http://www.w3.org/2000/svg" version="1.1" viewBox="0 0 240 16">
  <!-- Generator: Adobe Illustrator 29.1.0, SVG Export Plug-In . SVG Version: 2.1.0 Build 142)  -->
  <path d="M211.6,3v3.5h28.4v3h-28.4v3.5h28.4v3h-32.1V0h32.1v3h-28.4ZM200.1,6.5h-22V0h-3.6v16h3.6v-6h22v6h3.6V0h-3.6v6.5ZM140.4,3.5v8.9c0,1.9,1.6,3.5,3.6,3.5,0,0,0,0,0,0h26.2v-3.5h-25.7c-.2,0-.5-.2-.5-.4V4c0-.3.3-.5.6-.5h25.6V0h-26.1c-2,0-3.7,1.6-3.7,3.5h0ZM132.5,6.5h-23.1c-.3,0-.6-.2-.6-.5,0,0,0,0,0,0v-2.4c0-.3.3-.6.6-.6,0,0,0,0,0,0h26.2V0h-26.8c-2,0-3.6,1.6-3.6,3.5v2.4c0,2,1.6,3.5,3.7,3.5h23.1c.3,0,.6.2.6.5,0,0,0,0,0,0h0v2.4c0,.3-.3.6-.6.6,0,0,0,0,0,0h-26.2v3h26.8c2,0,3.6-1.6,3.7-3.5h0v-2.4c0-2-1.6-3.5-3.7-3.5h0ZM101,15.9h0s-3.6,0-3.6,0v-.6c0-2-1.6-3.5-3.7-3.5h-20.1v4.2h-3.6V0h27.4c2,0,3.6,1.6,3.6,3.5h0v3.5c0,1.9-1.5,3.5-3.5,3.5,2.2,1,3.5,3.1,3.5,5.4h0ZM97.3,4.1c0-.3-.3-.6-.6-.6h-23.2s0,4.7,0,4.7h23.2c.3,0,.6-.3.5-.6h0v-3.5ZM65.6,3.5v8.9h0c0,1.9-1.6,3.5-3.6,3.5,0,0,0,0,0,0h-23.1c-2,0-3.7-1.6-3.7-3.5,0,0,0,0,0,0V3.6c0-2,1.7-3.5,3.7-3.5h23.2c2,0,3.6,1.6,3.6,3.5ZM62,4.1c0-.3-.3-.6-.6-.6h-22c-.3,0-.6.2-.6.5v8c0,.2.2.4.5.4h22.1c.3,0,.6-.3.6-.6v-7.7ZM30.9,3.5v4.7c0,1.9-1.6,3.5-3.6,3.5,0,0,0,0,0,0H3.6v4.2H0V0h27.3c2,0,3.6,1.6,3.6,3.5,0,0,0,0,0,0h0ZM27.3,4.1c0-.3-.3-.6-.6-.6H3.6s0,4.7,0,4.7h23.2c.3,0,.6-.3.5-.6v-3.5Z"/>
</svg>