<?xml version="1.0" encoding="UTF-8"?>
<svg id="Layer_1" xmlns="http://www.w3.org/2000/svg" version="1.1" viewBox="0 0 30 30">
  <!-- Generator: Adobe Illustrator 29.1.0, SVG Export Plug-In . SVG Version: 2.1.0 Build 142)  -->
  <path d="M26.5,9.2c-.3-1-1.1-1.9-2.1-2.1-1.9-.5-9.4-.5-9.4-.5,0,0-7.5,0-9.4.5-1,.3-1.8,1.1-2.1,2.1-.5,1.9-.5,5.8-.5,5.8,0,0,0,3.9.5,5.8.3,1,1.1,1.8,2.1,2.1,1.9.5,9.4.5,9.4.5,0,0,7.5,0,9.4-.5,1-.3,1.8-1.1,2.1-2.1.5-1.9.5-5.8.5-5.8,0,0,0-3.9-.5-5.8h0ZM12.5,18.6v-7.1l6.3,3.6-6.3,3.6h0Z"/>
</svg>